<svg width="24" height="24" viewBox="0 0 24 24" fill="none" xmlns="http://www.w3.org/2000/svg">
<g id="nimbus:browser">
<path id="Vector" d="M5.58001 6.9601C6.13506 6.9601 6.58501 6.54372 6.58501 6.0301C6.58501 5.51647 6.13506 5.1001 5.58001 5.1001C5.02497 5.1001 4.57501 5.51647 4.57501 6.0301C4.57501 6.54372 5.02497 6.9601 5.58001 6.9601Z" fill="#013A90"/>
<path id="Vector_2" d="M9.43499 6.97509C9.57039 6.98764 9.70692 6.97173 9.8358 6.92839C9.96469 6.88504 10.0831 6.81522 10.1834 6.7234C10.2837 6.63158 10.3637 6.51979 10.4182 6.39523C10.4727 6.27066 10.5006 6.13607 10.5 6.00009C10.5 5.72559 10.3909 5.46233 10.1968 5.26823C10.0027 5.07413 9.73949 4.96509 9.46499 4.96509C9.19049 4.96509 8.92724 5.07413 8.73314 5.26823C8.53904 5.46233 8.42999 5.72559 8.42999 6.00009C8.42993 6.13069 8.45611 6.25998 8.50697 6.38027C8.55784 6.50056 8.63235 6.6094 8.72609 6.70034C8.81983 6.79128 8.93088 6.86247 9.05266 6.90966C9.17443 6.95686 9.30445 6.97911 9.43499 6.97509Z" fill="#013A90"/>
<path id="Vector_3" d="M13.305 6.97496C13.86 6.97496 14.31 6.55187 14.31 6.02996C14.31 5.50805 13.86 5.08496 13.305 5.08496C12.7499 5.08496 12.3 5.50805 12.3 6.02996C12.3 6.55187 12.7499 6.97496 13.305 6.97496Z" fill="#013A90"/>
<path id="Vector_4" d="M21.375 2.25H2.625C2.12772 2.25 1.65081 2.44754 1.29917 2.79917C0.947544 3.15081 0.75 3.62772 0.75 4.125V19.875C0.75 20.3723 0.947544 20.8492 1.29917 21.2008C1.65081 21.5525 2.12772 21.75 2.625 21.75H21.375C21.8723 21.75 22.3492 21.5525 22.7008 21.2008C23.0525 20.8492 23.25 20.3723 23.25 19.875V4.125C23.25 3.62772 23.0525 3.15081 22.7008 2.79917C22.3492 2.44754 21.8723 2.25 21.375 2.25ZM2.625 4.125H21.375V7.875H2.625V4.125ZM2.625 19.875V9.75H21.375V19.875H2.625Z" fill="#013A90"/>
</g>
</svg>
