<svg width="24" height="24" viewBox="0 0 24 24" fill="none" xmlns="http://www.w3.org/2000/svg">
<g id="grommet-icons:android" clip-path="url(#clip0_1261_3440)">
<path id="Vector" fill-rule="evenodd" clip-rule="evenodd" d="M5.685 7.91422H18.403V18.2782C18.403 18.8932 17.904 19.3932 17.289 19.3932H16.015V22.5492C16.0179 22.931 15.8692 23.2983 15.6014 23.5703C15.3336 23.8424 14.9687 23.9971 14.587 24.0002C14.3978 23.9989 14.2107 23.9603 14.0365 23.8867C13.8622 23.8131 13.7041 23.7058 13.5713 23.571C13.4385 23.4363 13.3336 23.2767 13.2625 23.1014C13.1914 22.926 13.1556 22.7384 13.157 22.5492V19.3932H10.932V22.5492C10.9334 22.7384 10.8976 22.926 10.8265 23.1014C10.7554 23.2767 10.6505 23.4363 10.5177 23.571C10.3849 23.7058 10.2268 23.8131 10.0525 23.8867C9.87827 23.9603 9.69119 23.9989 9.502 24.0002C9.31289 23.9988 9.12593 23.9601 8.95177 23.8864C8.77761 23.8127 8.61967 23.7054 8.48698 23.5707C8.35428 23.436 8.24942 23.2764 8.17839 23.1011C8.10736 22.9259 8.07155 22.7383 8.073 22.5492V19.3932H6.8C6.185 19.3932 5.685 18.8932 5.685 18.2782V7.91422ZM3.193 7.82922C2.396 7.82922 1.75 8.48522 1.75 9.29522V15.0222C1.75 15.8302 2.396 16.4872 3.193 16.4872C3.99 16.4872 4.636 15.8302 4.636 15.0222V9.29522C4.636 8.48522 3.99 7.82922 3.193 7.82922ZM18.403 6.86922H5.685C5.842 5.05922 7.018 3.50022 8.71 2.59722L7.5 0.820223C7.45879 0.763318 7.42943 0.69872 7.41364 0.630258C7.39786 0.561795 7.39597 0.490861 7.4081 0.421657C7.42024 0.352454 7.44613 0.286389 7.48426 0.227378C7.52239 0.168366 7.57198 0.117609 7.63009 0.0781125C7.68819 0.0386162 7.75364 0.0111849 7.82254 -0.00255636C7.89144 -0.0162976 7.9624 -0.0160691 8.03121 -0.00188439C8.10002 0.0123003 8.16529 0.0401526 8.22314 0.0800222C8.28099 0.119892 8.33025 0.170968 8.368 0.230223L9.686 2.16622C11.2138 1.63687 12.8752 1.63687 14.403 2.16622L15.721 0.230223C15.7597 0.173295 15.8093 0.124555 15.8669 0.0867856C15.9245 0.0490161 15.9889 0.022957 16.0566 0.010096C16.1242 -0.00276487 16.1937 -0.00217569 16.2612 0.0118299C16.3286 0.0258356 16.3926 0.0529834 16.4495 0.0917233C16.5064 0.130463 16.5552 0.180037 16.5929 0.237613C16.6307 0.29519 16.6568 0.359642 16.6696 0.427289C16.6825 0.494937 16.6819 0.564455 16.6679 0.631875C16.6539 0.699294 16.6267 0.763295 16.588 0.820223L15.38 2.59622C17.072 3.49822 18.246 5.05622 18.403 6.86922ZM10.065 4.40822C10.0651 4.22178 9.99119 4.04291 9.85945 3.91098C9.72771 3.77905 9.54895 3.70486 9.3625 3.70472C9.17605 3.70459 8.99719 3.77853 8.86526 3.91027C8.73333 4.04202 8.65913 4.22078 8.659 4.40722C8.659 4.59367 8.73307 4.77248 8.8649 4.90432C8.99674 5.03616 9.17555 5.11022 9.362 5.11022C9.54845 5.11022 9.72726 5.03616 9.8591 4.90432C9.99093 4.77248 10.065 4.59467 10.065 4.40822ZM15.519 4.40822C15.519 4.31577 15.5008 4.22423 15.4654 4.13881C15.43 4.0534 15.3782 3.97579 15.3128 3.91042C15.2474 3.84505 15.1698 3.79319 15.0844 3.75781C14.999 3.72243 14.9074 3.70422 14.815 3.70422C14.7225 3.70422 14.631 3.72243 14.5456 3.75781C14.4602 3.79319 14.3826 3.84505 14.3172 3.91042C14.2518 3.97579 14.2 4.0534 14.1646 4.13881C14.1292 4.22423 14.111 4.31577 14.111 4.40822C14.111 4.59494 14.1852 4.774 14.3172 4.90603C14.4492 5.03805 14.6283 5.11222 14.815 5.11222C15.0017 5.11222 15.1808 5.03805 15.3128 4.90603C15.4448 4.774 15.519 4.59494 15.519 4.40822ZM20.897 7.82822C20.1 7.82822 19.453 8.48422 19.453 9.29422V15.0232C19.453 15.8332 20.1 16.4892 20.897 16.4892C21.694 16.4892 22.338 15.8322 22.338 15.0232V9.29322C22.338 8.48422 21.694 7.82822 20.897 7.82822Z" fill="#012E70"/>
</g>
<defs>
<clipPath id="clip0_1261_3440">
<rect width="24" height="24" fill="white"/>
</clipPath>
</defs>
</svg>
