<svg width="24" height="24" viewBox="0 0 24 24" fill="none" xmlns="http://www.w3.org/2000/svg">
<g id="raphael:ios">
<path id="Vector" d="M3.04872 16.3477H4.72497V9.75967H3.04947L3.04872 16.3477ZM3.88872 7.01392C3.33372 7.01392 2.95422 7.40617 2.95422 7.91992C2.95422 8.42017 3.31872 8.81242 3.87372 8.81242C4.45497 8.81242 4.82097 8.42017 4.82097 7.91992C4.80597 7.40617 4.45347 7.01392 3.88647 7.01392H3.88872ZM10.4362 7.08142C7.86597 7.08142 6.10872 9.05617 6.10872 11.8567C6.10872 14.5342 7.73097 16.4954 10.3012 16.4954C12.8175 16.4954 14.6707 14.7509 14.6707 11.6939C14.6707 9.09667 13.1017 7.08142 10.437 7.08142H10.4362ZM10.395 15.1574C8.79897 15.1574 7.86522 13.6829 7.86522 11.8297C7.86522 9.94942 8.74422 8.42092 10.395 8.42092C12.0585 8.42092 12.9105 10.0439 12.9105 11.7622C12.9105 13.6702 12.0052 15.1574 10.395 15.1574ZM19.2712 11.0452C18.0547 10.5727 17.5267 10.2472 17.5267 9.54367C17.5267 9.01642 17.9857 8.44867 19.0417 8.44867C19.8945 8.44867 20.5267 8.70517 20.8537 8.88067L21.2587 7.54267C20.7772 7.29892 20.0565 7.08292 19.0597 7.08292C17.085 7.08292 15.84 8.21917 15.84 9.70792C15.84 11.0204 16.8 11.8169 18.3022 12.3584C19.4662 12.7784 19.9237 13.1834 19.9237 13.8734C19.9237 14.6174 19.326 15.1184 18.2535 15.1184C17.4007 15.1184 16.5885 14.8484 16.05 14.5364L15.687 15.9164C16.188 16.2142 17.1885 16.4864 18.147 16.4864C20.502 16.4864 21.609 15.2189 21.609 13.7527C21.6262 12.4402 20.8552 11.6422 19.2712 11.0467V11.0452Z" fill="#013A90"/>
</g>
</svg>
