<svg width="30" height="30" viewBox="0 0 30 30" fill="none" xmlns="http://www.w3.org/2000/svg">
<path d="M6.5625 4.6875C6.06522 4.6875 5.58831 4.88504 5.23667 5.23667C4.88504 5.58831 4.6875 6.06522 4.6875 6.5625V23.4375C4.6875 23.9348 4.88504 24.4117 5.23667 24.7633C5.58831 25.115 6.06522 25.3125 6.5625 25.3125H23.4375C23.9348 25.3125 24.4117 25.115 24.7633 24.7633C25.115 24.4117 25.3125 23.9348 25.3125 23.4375V6.5625C25.3125 6.06522 25.115 5.58831 24.7633 5.23667C24.4117 4.88504 23.9348 4.6875 23.4375 4.6875H6.5625ZM6.5625 2.8125H23.4375C24.4321 2.8125 25.3859 3.20759 26.0891 3.91085C26.7924 4.61411 27.1875 5.56794 27.1875 6.5625V23.4375C27.1875 24.4321 26.7924 25.3859 26.0891 26.0891C25.3859 26.7924 24.4321 27.1875 23.4375 27.1875H6.5625C5.56794 27.1875 4.61411 26.7924 3.91085 26.0891C3.20759 25.3859 2.8125 24.4321 2.8125 23.4375V6.5625C2.8125 5.56794 3.20759 4.61411 3.91085 3.91085C4.61411 3.20759 5.56794 2.8125 6.5625 2.8125Z" fill="#D1D5D8"/>
<path d="M11.25 12.1875C11.7473 12.1875 12.2242 11.99 12.5758 11.6383C12.9275 11.2867 13.125 10.8098 13.125 10.3125C13.125 9.81522 12.9275 9.33831 12.5758 8.98668C12.2242 8.63504 11.7473 8.4375 11.25 8.4375C10.7527 8.4375 10.2758 8.63504 9.92418 8.98668C9.57254 9.33831 9.375 9.81522 9.375 10.3125C9.375 10.8098 9.57254 11.2867 9.92418 11.6383C10.2758 11.99 10.7527 12.1875 11.25 12.1875ZM11.25 14.0625C10.2554 14.0625 9.30161 13.6674 8.59835 12.9642C7.89509 12.2609 7.5 11.3071 7.5 10.3125C7.5 9.31794 7.89509 8.36411 8.59835 7.66085C9.30161 6.95759 10.2554 6.5625 11.25 6.5625C12.2446 6.5625 13.1984 6.95759 13.9017 7.66085C14.6049 8.36411 15 9.31794 15 10.3125C15 11.3071 14.6049 12.2609 13.9017 12.9642C13.1984 13.6674 12.2446 14.0625 11.25 14.0625Z" fill="#D1D5D8"/>
<path d="M14.0625 9.375H21.5625C22.1875 9.375 22.5 9.6875 22.5 10.3125C22.5 10.9375 22.1875 11.25 21.5625 11.25H14.0625C13.4375 11.25 13.125 10.9375 13.125 10.3125C13.125 9.6875 13.4375 9.375 14.0625 9.375ZM18.75 21.5625C19.2473 21.5625 19.7242 21.365 20.0758 21.0133C20.4275 20.6617 20.625 20.1848 20.625 19.6875C20.625 19.1902 20.4275 18.7133 20.0758 18.3617C19.7242 18.01 19.2473 17.8125 18.75 17.8125C18.2527 17.8125 17.7758 18.01 17.4242 18.3617C17.0725 18.7133 16.875 19.1902 16.875 19.6875C16.875 20.1848 17.0725 20.6617 17.4242 21.0133C17.7758 21.365 18.2527 21.5625 18.75 21.5625ZM18.75 23.4375C17.7554 23.4375 16.8016 23.0424 16.0984 22.3391C15.3951 21.6359 15 20.6821 15 19.6875C15 18.6929 15.3951 17.7391 16.0984 17.0359C16.8016 16.3326 17.7554 15.9375 18.75 15.9375C19.7446 15.9375 20.6984 16.3326 21.4016 17.0359C22.1049 17.7391 22.5 18.6929 22.5 19.6875C22.5 20.6821 22.1049 21.6359 21.4016 22.3391C20.6984 23.0424 19.7446 23.4375 18.75 23.4375Z" fill="#D1D5D8"/>
<path d="M8.4375 18.75H15.9375C16.5625 18.75 16.875 19.0625 16.875 19.6875C16.875 20.3125 16.5625 20.625 15.9375 20.625H8.4375C7.8125 20.625 7.5 20.3125 7.5 19.6875C7.5 19.0625 7.8125 18.75 8.4375 18.75Z" fill="#D1D5D8"/>
</svg>
