<svg width="27" height="25" viewBox="0 0 27 25" fill="none" xmlns="http://www.w3.org/2000/svg">
<path d="M8.17854 0.285767C6.89981 0.285767 5.67346 0.793737 4.76927 1.69793C3.86508 2.60212 3.35711 3.82847 3.35711 5.10719C3.35711 6.38592 3.86508 7.61227 4.76927 8.51646C5.67346 9.42065 6.89981 9.92862 8.17854 9.92862C9.45726 9.92862 10.6836 9.42065 11.5878 8.51646C12.492 7.61227 13 6.38592 13 5.10719C13 3.82847 12.492 2.60212 11.5878 1.69793C10.6836 0.793737 9.45726 0.285767 8.17854 0.285767ZM4.96425 5.10719C4.96425 4.68509 5.04739 4.26712 5.20892 3.87714C5.37046 3.48717 5.60722 3.13283 5.90569 2.83435C6.20417 2.53588 6.55851 2.29911 6.94848 2.13758C7.33846 1.97605 7.75643 1.89291 8.17854 1.89291C8.60064 1.89291 9.01861 1.97605 9.40859 2.13758C9.79856 2.29911 10.1529 2.53588 10.4514 2.83435C10.7499 3.13283 10.9866 3.48717 11.1481 3.87714C11.3097 4.26712 11.3928 4.68509 11.3928 5.10719C11.3928 5.95968 11.0542 6.77724 10.4514 7.38004C9.84858 7.98283 9.03102 8.32148 8.17854 8.32148C7.32605 8.32148 6.50849 7.98283 5.90569 7.38004C5.3029 6.77724 4.96425 5.95968 4.96425 5.10719ZM19.4285 2.42862C18.9361 2.42862 18.4484 2.52562 17.9935 2.71408C17.5385 2.90253 17.1251 3.17875 16.7769 3.52697C16.4287 3.87519 16.1524 4.28859 15.964 4.74356C15.7755 5.19853 15.6785 5.68617 15.6785 6.17862C15.6785 6.67108 15.7755 7.15872 15.964 7.61369C16.1524 8.06866 16.4287 8.48205 16.7769 8.83027C17.1251 9.17849 17.5385 9.45472 17.9935 9.64317C18.4484 9.83163 18.9361 9.92862 19.4285 9.92862C20.4231 9.92862 21.3769 9.53354 22.0802 8.83027C22.7834 8.12701 23.1785 7.17319 23.1785 6.17862C23.1785 5.18406 22.7834 4.23023 22.0802 3.52697C21.3769 2.82371 20.4231 2.42862 19.4285 2.42862ZM17.2857 6.17862C17.2857 5.6103 17.5114 5.06526 17.9133 4.6634C18.3152 4.26153 18.8602 4.03577 19.4285 4.03577C19.9969 4.03577 20.5419 4.26153 20.9438 4.6634C21.3456 5.06526 21.5714 5.6103 21.5714 6.17862C21.5714 6.74694 21.3456 7.29199 20.9438 7.69385C20.5419 8.09572 19.9969 8.32148 19.4285 8.32148C18.8602 8.32148 18.3152 8.09572 17.9133 7.69385C17.5114 7.29199 17.2857 6.74694 17.2857 6.17862ZM2.55354 12.0715C1.91418 12.0715 1.301 12.3255 0.848904 12.7776C0.396807 13.2297 0.142822 13.8428 0.142822 14.4822V15.0511C0.144125 15.1378 0.150205 15.2244 0.161037 15.3104C0.179251 15.4743 0.213537 15.6993 0.278894 15.9661C0.45664 16.6695 0.772399 17.3305 1.20782 17.9108C2.29425 19.3604 4.36639 20.6429 8.17854 20.6429C9.81889 20.6429 11.1378 20.4051 12.1932 20.0193C12.0534 19.4873 11.9686 18.9423 11.9403 18.3929C11.0446 18.7733 9.82961 19.0358 8.17854 19.0358C4.75854 19.0358 3.21461 17.9076 2.49354 16.9465C2.18675 16.5377 1.96456 16.0718 1.83997 15.5761C1.79495 15.3975 1.7652 15.2155 1.75104 15.0318L1.74997 15.0126V14.4822C1.74997 14.2691 1.83463 14.0647 1.98533 13.914C2.13602 13.7633 2.34042 13.6786 2.55354 13.6786H13.166C13.5191 13.12 13.9393 12.6069 14.4175 12.1508C14.2171 12.0981 14.0107 12.0715 13.8035 12.0715H2.55354ZM15.9957 13.8908C16.0758 14.1678 16.0991 14.4582 16.0643 14.7446C16.0295 15.0309 15.9373 15.3072 15.7931 15.557C15.649 15.8069 15.4558 16.025 15.2254 16.1984C14.9949 16.3718 14.7317 16.4969 14.4517 16.5661L13.3546 16.8372C13.2351 17.6014 13.238 18.3797 13.3632 19.1429L14.4089 19.3947C14.6913 19.4627 14.9569 19.5875 15.1896 19.7613C15.4223 19.9352 15.6173 20.1545 15.7626 20.4061C15.9079 20.6576 16.0005 20.936 16.0349 21.2245C16.0693 21.5129 16.0446 21.8054 15.9625 22.084L15.6153 23.2604C16.1703 23.7533 16.8046 24.1551 17.4935 24.439L18.3968 23.4897C18.5969 23.2791 18.8378 23.1115 19.1048 22.9969C19.3718 22.8824 19.6593 22.8233 19.9498 22.8233C20.2403 22.8233 20.5278 22.8824 20.7948 22.9969C21.0618 23.1115 21.3027 23.2791 21.5028 23.4897L22.4135 24.4486C23.0997 24.1667 23.7338 23.772 24.2896 23.2808L23.9307 22.0379C23.8509 21.761 23.8278 21.4708 23.8628 21.1847C23.8977 20.8986 23.99 20.6226 24.1342 20.373C24.2783 20.1234 24.4713 19.9055 24.7016 19.7322C24.932 19.559 25.1949 19.434 25.4746 19.3647L26.5739 19.0926C26.6933 18.3284 26.6904 17.5501 26.5653 16.7868L25.5185 16.5351C25.2361 16.467 24.9705 16.3423 24.7378 16.1684C24.5051 15.9946 24.3102 15.7752 24.1648 15.5237C24.0195 15.2721 23.9269 14.9937 23.8925 14.7053C23.8582 14.4168 23.8828 14.1244 23.965 13.8458L24.3121 12.6672C23.7564 12.172 23.1215 11.7736 22.4339 11.4886L21.5307 12.4401C21.3305 12.6508 21.0895 12.8186 20.8225 12.9332C20.5554 13.0479 20.2678 13.107 19.9771 13.107C19.6865 13.107 19.3988 13.0479 19.1318 12.9332C18.8647 12.8186 18.6237 12.6508 18.4235 12.4401L17.5139 11.4811C16.8274 11.7629 16.1929 12.1576 15.6368 12.649L15.9957 13.8908ZM19.9643 19.5715C19.538 19.5715 19.1292 19.4022 18.8278 19.1008C18.5264 18.7994 18.3571 18.3906 18.3571 17.9643C18.3571 17.5381 18.5264 17.1293 18.8278 16.8279C19.1292 16.5265 19.538 16.3572 19.9643 16.3572C20.3905 16.3572 20.7993 16.5265 21.1007 16.8279C21.4021 17.1293 21.5714 17.5381 21.5714 17.9643C21.5714 18.3906 21.4021 18.7994 21.1007 19.1008C20.7993 19.4022 20.3905 19.5715 19.9643 19.5715Z" fill="#D1D5D8"/>
</svg>
