<svg width="30" height="30" viewBox="0 0 30 30" fill="none" xmlns="http://www.w3.org/2000/svg">
<path d="M15 27.5C21.9037 27.5 27.5 21.9037 27.5 15C27.5 8.09625 21.9037 2.5 15 2.5C8.09625 2.5 2.5 8.09625 2.5 15C2.5 21.9037 8.09625 27.5 15 27.5Z" stroke="#D1D5D8" stroke-width="2.5" stroke-linejoin="round"/>
<path d="M15 11.25C15.4973 11.25 15.9742 11.0525 16.3258 10.7008C16.6775 10.3492 16.875 9.87228 16.875 9.375C16.875 8.87772 16.6775 8.40081 16.3258 8.04917C15.9742 7.69754 15.4973 7.5 15 7.5C14.5027 7.5 14.0258 7.69754 13.6742 8.04917C13.3225 8.40081 13.125 8.87772 13.125 9.375C13.125 9.87228 13.3225 10.3492 13.6742 10.7008C14.0258 11.0525 14.5027 11.25 15 11.25ZM15 22.5C15.4973 22.5 15.9742 22.3025 16.3258 21.9508C16.6775 21.5992 16.875 21.1223 16.875 20.625C16.875 20.1277 16.6775 19.6508 16.3258 19.2992C15.9742 18.9475 15.4973 18.75 15 18.75C14.5027 18.75 14.0258 18.9475 13.6742 19.2992C13.3225 19.6508 13.125 20.1277 13.125 20.625C13.125 21.1223 13.3225 21.5992 13.6742 21.9508C14.0258 22.3025 14.5027 22.5 15 22.5ZM9.375 16.875C9.87228 16.875 10.3492 16.6775 10.7008 16.3258C11.0525 15.9742 11.25 15.4973 11.25 15C11.25 14.5027 11.0525 14.0258 10.7008 13.6742C10.3492 13.3225 9.87228 13.125 9.375 13.125C8.87772 13.125 8.40081 13.3225 8.04917 13.6742C7.69754 14.0258 7.5 14.5027 7.5 15C7.5 15.4973 7.69754 15.9742 8.04917 16.3258C8.40081 16.6775 8.87772 16.875 9.375 16.875ZM20.625 16.875C21.1223 16.875 21.5992 16.6775 21.9508 16.3258C22.3025 15.9742 22.5 15.4973 22.5 15C22.5 14.5027 22.3025 14.0258 21.9508 13.6742C21.5992 13.3225 21.1223 13.125 20.625 13.125C20.1277 13.125 19.6508 13.3225 19.2992 13.6742C18.9475 14.0258 18.75 14.5027 18.75 15C18.75 15.4973 18.9475 15.9742 19.2992 16.3258C19.6508 16.6775 20.1277 16.875 20.625 16.875Z" stroke="#D1D5D8" stroke-width="2.5" stroke-linejoin="round"/>
<path d="M15 27.5H27.5" stroke="#D1D5D8" stroke-width="2.5" stroke-linecap="round"/>
</svg>
