<svg width="60" height="60" viewBox="0 0 60 60" fill="none" xmlns="http://www.w3.org/2000/svg">
<g filter="url(#filter0_b_10_89)">
<rect width="59.9081" height="60" rx="29.9541" fill="#1976D2"/>
</g>
<path d="M34.6136 24.5556H25.6997H25.2946V30.7102L28.9411 34.6667H31.3722L34.6136 31.1498V24.5556Z" fill="white" fill-opacity="0.8"/>
<path d="M29.9541 34.0833C32.5285 34.0833 34.6136 31.995 34.6136 29.4167V23C34.6136 20.4217 32.5285 18.3333 29.9541 18.3333C27.3797 18.3333 25.2946 20.4217 25.2946 23V29.4167C25.2946 31.995 27.3797 34.0833 29.9541 34.0833Z" stroke="white" stroke-width="2.25" stroke-linecap="round" stroke-linejoin="round"/>
<path d="M21.0432 27.2583V29.2417C21.0432 34.165 25.0388 38.1667 29.9545 38.1667C34.8703 38.1667 38.8659 34.165 38.8659 29.2417V27.2583" stroke="white" stroke-width="2.25" stroke-linecap="round" stroke-linejoin="round"/>
<path d="M29.9541 38.1667V41.6667" stroke="white" stroke-width="2.25" stroke-linecap="round" stroke-linejoin="round"/>
<defs>
<filter id="filter0_b_10_89" x="-10.5" y="-10.5" width="80.9081" height="81" filterUnits="userSpaceOnUse" color-interpolation-filters="sRGB">
<feFlood flood-opacity="0" result="BackgroundImageFix"/>
<feGaussianBlur in="BackgroundImageFix" stdDeviation="5.25"/>
<feComposite in2="SourceAlpha" operator="in" result="effect1_backgroundBlur_10_89"/>
<feBlend mode="normal" in="SourceGraphic" in2="effect1_backgroundBlur_10_89" result="shape"/>
</filter>
</defs>
</svg>
