<svg width="28" height="26" viewBox="0 0 28 26" fill="none" xmlns="http://www.w3.org/2000/svg">
<path d="M24 18C23.2241 18.004 22.4686 18.2486 21.8375 18.7L18.775 16.8875C18.9195 16.439 18.9954 15.9712 19 15.5C18.9964 14.3943 18.6264 13.321 17.9479 12.448C17.2694 11.575 16.3206 10.9515 15.25 10.675V7.77504C16.084 7.48017 16.7869 6.89995 17.2345 6.13694C17.6821 5.37392 17.8456 4.47724 17.696 3.60537C17.5464 2.7335 17.0934 1.94258 16.4171 1.3724C15.7407 0.802227 14.8846 0.489502 14 0.489502C13.1154 0.489502 12.2593 0.802227 11.5829 1.3724C10.9066 1.94258 10.4536 2.7335 10.304 3.60537C10.1544 4.47724 10.3179 5.37392 10.7655 6.13694C11.2131 6.89995 11.916 7.48017 12.75 7.77504V10.675C11.6794 10.9515 10.7306 11.575 10.0521 12.448C9.37359 13.321 9.00359 14.3943 9 15.5C9.00465 15.9712 9.0805 16.439 9.225 16.8875L6.1625 18.7C5.53144 18.2486 4.77589 18.004 4 18C3.25832 18 2.5333 18.22 1.91661 18.632C1.29993 19.0441 0.819282 19.6297 0.535453 20.315C0.251625 21.0002 0.177362 21.7542 0.322057 22.4816C0.466751 23.2091 0.823904 23.8772 1.34835 24.4017C1.8728 24.9261 2.54098 25.2833 3.26841 25.428C3.99584 25.5727 4.74984 25.4984 5.43506 25.2146C6.12029 24.9308 6.70596 24.4501 7.11801 23.8334C7.53007 23.2167 7.75 22.4917 7.75 21.75C7.74538 21.4115 7.69492 21.0751 7.6 20.75L10.475 19.0375C11.4118 19.9688 12.6791 20.4915 14 20.4915C15.3209 20.4915 16.5882 19.9688 17.525 19.0375L20.4 20.75C20.1906 21.507 20.2241 22.3107 20.4959 23.0476C20.7677 23.7845 21.264 24.4175 21.9148 24.8573C22.5656 25.297 23.3381 25.5213 24.1232 25.4984C24.9083 25.4756 25.6664 25.2068 26.2906 24.73C26.9148 24.2532 27.3735 23.5925 27.602 22.841C27.8305 22.0895 27.8173 21.2853 27.5642 20.5417C27.3111 19.7982 26.831 19.1529 26.1915 18.6968C25.552 18.2408 24.7854 17.9971 24 18ZM4 23C3.75278 23 3.5111 22.9267 3.30554 22.7894C3.09998 22.652 2.93976 22.4568 2.84515 22.2284C2.75054 22 2.72579 21.7486 2.77402 21.5062C2.82225 21.2637 2.9413 21.041 3.11612 20.8661C3.29093 20.6913 3.51366 20.5723 3.75614 20.5241C3.99862 20.4758 4.24995 20.5006 4.47836 20.5952C4.70676 20.6898 4.90199 20.85 5.03934 21.0556C5.17669 21.2611 5.25 21.5028 5.25 21.75C5.25 22.0816 5.11831 22.3995 4.88388 22.6339C4.64946 22.8683 4.33152 23 4 23ZM14 3.00004C14.2472 3.00004 14.4889 3.07335 14.6945 3.2107C14.9 3.34805 15.0602 3.54327 15.1549 3.77168C15.2495 4.00009 15.2742 4.25142 15.226 4.4939C15.1778 4.73637 15.0587 4.9591 14.8839 5.13392C14.7091 5.30873 14.4863 5.42779 14.2439 5.47602C14.0014 5.52425 13.7501 5.4995 13.5216 5.40489C13.2932 5.31028 13.098 5.15006 12.9607 4.9445C12.8233 4.73894 12.75 4.49726 12.75 4.25004C12.75 3.91852 12.8817 3.60057 13.1161 3.36615C13.3505 3.13173 13.6685 3.00004 14 3.00004ZM14 18C13.5055 18 13.0222 17.8534 12.6111 17.5787C12.2 17.304 11.8795 16.9136 11.6903 16.4567C11.5011 15.9999 11.4516 15.4973 11.548 15.0123C11.6445 14.5274 11.8826 14.0819 12.2322 13.7323C12.5819 13.3826 13.0273 13.1445 13.5123 13.0481C13.9972 12.9516 14.4999 13.0011 14.9567 13.1903C15.4135 13.3796 15.804 13.7 16.0787 14.1111C16.3534 14.5222 16.5 15.0056 16.5 15.5C16.5 16.1631 16.2366 16.799 15.7678 17.2678C15.2989 17.7366 14.663 18 14 18ZM24 23C23.7528 23 23.5111 22.9267 23.3055 22.7894C23.1 22.652 22.9398 22.4568 22.8452 22.2284C22.7505 22 22.7258 21.7486 22.774 21.5062C22.8223 21.2637 22.9413 21.041 23.1161 20.8661C23.2909 20.6913 23.5137 20.5723 23.7561 20.5241C23.9986 20.4758 24.2499 20.5006 24.4784 20.5952C24.7068 20.6898 24.902 20.85 25.0393 21.0556C25.1767 21.2611 25.25 21.5028 25.25 21.75C25.25 22.0816 25.1183 22.3995 24.8839 22.6339C24.6495 22.8683 24.3315 23 24 23Z" fill="#D1D5D8"/>
</svg>
