<svg width="26" height="26" viewBox="0 0 26 26" fill="none" xmlns="http://www.w3.org/2000/svg">
<path d="M5.5 12H20.5C21.4946 12 22.4484 11.6049 23.1517 10.9017C23.8549 10.1984 24.25 9.24456 24.25 8.25V5.75C24.25 4.75544 23.8549 3.80161 23.1517 3.09835C22.4484 2.39509 21.4946 2 20.5 2H5.5C4.50544 2 3.55161 2.39509 2.84835 3.09835C2.14509 3.80161 1.75 4.75544 1.75 5.75V8.25C1.75 9.24456 2.14509 10.1984 2.84835 10.9017C3.55161 11.6049 4.50544 12 5.5 12ZM5.5 12C4.50544 12 3.55161 12.3951 2.84835 13.0983C2.14509 13.8016 1.75 14.7554 1.75 15.75V18.25C1.75 19.2446 2.14509 20.1984 2.84835 20.9017C3.55161 21.6049 4.50544 22 5.5 22H13M5.5 12H18.625M20.5 22C19.837 22 19.2011 21.7366 18.7322 21.2678C18.2634 20.7989 18 20.163 18 19.5C18 18.837 18.2634 18.2011 18.7322 17.7322C19.2011 17.2634 19.837 17 20.5 17M20.5 22C21.163 22 21.7989 21.7366 22.2678 21.2678C22.7366 20.7989 23 20.163 23 19.5C23 18.837 22.7366 18.2011 22.2678 17.7322C21.7989 17.2634 21.163 17 20.5 17M20.5 22V23.875M20.5 17V15.125M24.29 17.3125L22.6662 18.25M18.3375 20.75L16.7125 21.6875M16.7125 17.3125L18.3375 18.25M22.6662 20.75L24.2913 21.6875M6.75 7V7.0125M6.75 17V17.0125" stroke="#D1D5D8" stroke-width="2.5" stroke-linecap="round" stroke-linejoin="round"/>
</svg>
