<svg width="30" height="30" viewBox="0 0 30 30" fill="none" xmlns="http://www.w3.org/2000/svg">
<path d="M26.25 7.73438H18.1254C18.0747 7.73438 18.0253 7.71793 17.9848 7.6875L14.734 5.25C14.45 5.03701 14.1046 4.92188 13.7496 4.92188H8.4375C8.00238 4.92188 7.58508 5.09473 7.2774 5.4024C6.96973 5.71008 6.79688 6.12738 6.79688 6.5625V8.67188H4.6875C4.25238 8.67188 3.83508 8.84473 3.5274 9.1524C3.21973 9.46008 3.04688 9.87738 3.04688 10.3125V23.4375C3.04688 23.8726 3.21973 24.2899 3.5274 24.5976C3.83508 24.9053 4.25238 25.0781 4.6875 25.0781H22.6043C23.0117 25.0778 23.4023 24.9159 23.6903 24.6278C23.9784 24.3398 24.1403 23.9492 24.1406 23.5418V21.3281H26.3543C26.7617 21.3278 27.1523 21.1659 27.4403 20.8778C27.7284 20.5898 27.8903 20.1992 27.8906 19.7918V9.375C27.8906 8.93988 27.7178 8.52258 27.4101 8.2149C27.1024 7.90723 26.6851 7.73438 26.25 7.73438ZM22.7344 23.5418C22.7344 23.5763 22.7207 23.6094 22.6963 23.6338C22.6719 23.6582 22.6388 23.6719 22.6043 23.6719H4.6875C4.62534 23.6719 4.56573 23.6472 4.52177 23.6032C4.47782 23.5593 4.45312 23.4997 4.45312 23.4375V10.3125C4.45312 10.2503 4.47782 10.1907 4.52177 10.1468C4.56573 10.1028 4.62534 10.0781 4.6875 10.0781H9.99961C10.0503 10.0781 10.0997 10.0946 10.1402 10.125L13.391 12.5625C13.675 12.7755 14.0204 12.8906 14.3754 12.8906H22.5C22.5622 12.8906 22.6218 12.9153 22.6657 12.9593C22.7097 13.0032 22.7344 13.0628 22.7344 13.125V23.5418ZM26.4844 19.7918C26.4844 19.8089 26.481 19.8258 26.4745 19.8416C26.4679 19.8574 26.4584 19.8717 26.4463 19.8838C26.4342 19.8959 26.4199 19.9054 26.4041 19.912C26.3883 19.9185 26.3714 19.9219 26.3543 19.9219H24.1406V13.125C24.1406 12.6899 23.9678 12.2726 23.6601 11.9649C23.3524 11.6572 22.9351 11.4844 22.5 11.4844H14.3754C14.3247 11.4844 14.2753 11.4679 14.2348 11.4375L10.984 9C10.7 8.78701 10.3546 8.67188 9.99961 8.67188H8.20312V6.5625C8.20312 6.50034 8.22782 6.44073 8.27177 6.39677C8.31573 6.35282 8.37534 6.32812 8.4375 6.32812H13.7496C13.8003 6.32812 13.8497 6.34457 13.8902 6.375L17.141 8.8125C17.425 9.02549 17.7704 9.14062 18.1254 9.14062H26.25C26.3122 9.14062 26.3718 9.16532 26.4157 9.20927C26.4597 9.25323 26.4844 9.31284 26.4844 9.375V19.7918Z" fill="#D1D5D8"/>
</svg>
