<svg width="72" height="72" viewBox="0 0 72 72" fill="none" xmlns="http://www.w3.org/2000/svg">
<g filter="url(#filter0_b_10_101)">
<rect x="5.99237" y="6" width="59.9081" height="60" rx="29.9541" fill="#FFC8C8"/>
</g>
<path d="M35.9115 47.6666C42.345 47.6666 47.5603 42.4433 47.5603 36C47.5603 29.5567 42.345 24.3333 35.9115 24.3333C29.478 24.3333 24.2627 29.5567 24.2627 36C24.2627 42.4433 29.478 47.6666 35.9115 47.6666Z" stroke="#EB5757" stroke-width="2.25" stroke-linecap="round" stroke-linejoin="round"/>
<path d="M35.9467 40.935C38.668 40.935 40.8741 38.7255 40.8741 36C40.8741 33.2745 38.668 31.065 35.9467 31.065C33.2253 31.065 31.0192 33.2745 31.0192 36C31.0192 38.7255 33.2253 40.935 35.9467 40.935Z" stroke="#EB5757" stroke-width="2.25" stroke-miterlimit="10" stroke-linecap="round" stroke-linejoin="round"/>
<circle cx="35.9679" cy="36" r="4" fill="#EB5757" fill-opacity="0.6"/>
<g opacity="0.1" filter="url(#filter1_f_10_101)">
<path d="M55.9143 35.5C55.9143 46.8233 46.7494 56 35.4472 56C24.145 56 14.9801 46.8233 14.9801 35.5C14.9801 24.1767 24.145 15 35.4472 15C46.7494 15 55.9143 24.1767 55.9143 35.5Z" stroke="#EB5757" stroke-width="2"/>
<path d="M55.9143 35.5C55.9143 46.8233 46.7494 56 35.4472 56C24.145 56 14.9801 46.8233 14.9801 35.5C14.9801 24.1767 24.145 15 35.4472 15C46.7494 15 55.9143 24.1767 55.9143 35.5Z" stroke="#EB5757" stroke-width="2"/>
</g>
<g opacity="0.2" filter="url(#filter2_f_10_101)">
<path d="M69.8928 36C69.8928 54.7791 54.693 70 35.9464 70C17.1998 70 2 54.7791 2 36C2 17.2209 17.1998 2 35.9464 2C54.693 2 69.8928 17.2209 69.8928 36Z" stroke="#EB5757" stroke-width="2"/>
<path d="M69.8928 36C69.8928 54.7791 54.693 70 35.9464 70C17.1998 70 2 54.7791 2 36C2 17.2209 17.1998 2 35.9464 2C54.693 2 69.8928 17.2209 69.8928 36Z" stroke="#EB5757" stroke-width="2"/>
</g>
<defs>
<filter id="filter0_b_10_101" x="-4.50763" y="-4.5" width="80.9081" height="81" filterUnits="userSpaceOnUse" color-interpolation-filters="sRGB">
<feFlood flood-opacity="0" result="BackgroundImageFix"/>
<feGaussianBlur in="BackgroundImageFix" stdDeviation="5.25"/>
<feComposite in2="SourceAlpha" operator="in" result="effect1_backgroundBlur_10_101"/>
<feBlend mode="normal" in="SourceGraphic" in2="effect1_backgroundBlur_10_101" result="shape"/>
</filter>
<filter id="filter1_f_10_101" x="12.9801" y="13" width="44.9341" height="45" filterUnits="userSpaceOnUse" color-interpolation-filters="sRGB">
<feFlood flood-opacity="0" result="BackgroundImageFix"/>
<feBlend mode="normal" in="SourceGraphic" in2="BackgroundImageFix" result="shape"/>
<feGaussianBlur stdDeviation="0.5" result="effect1_foregroundBlur_10_101"/>
</filter>
<filter id="filter2_f_10_101" x="0" y="0" width="71.8928" height="72" filterUnits="userSpaceOnUse" color-interpolation-filters="sRGB">
<feFlood flood-opacity="0" result="BackgroundImageFix"/>
<feBlend mode="normal" in="SourceGraphic" in2="BackgroundImageFix" result="shape"/>
<feGaussianBlur stdDeviation="0.5" result="effect1_foregroundBlur_10_101"/>
</filter>
</defs>
</svg>
